# xmcd
#
# Track frame offsets:
# 150
# 13644
# 39006
# 56805
# 72710
# 86319
# 105076
# 119649
# 140447
# 155462
# 177686
# 197585
#
# Disc length: 2793 seconds
#
# Revision: 1
# Processed by: cddbd v1.4PL0 Copyright (c) Steve Scherf et al.
# Submitted via: CedeCatalogueitor 2.5 http://usuarios.lycos.es/kakasboy
#
DISCID=9f0ae70c
DTITLE=Varios - Guitarras Mestizas
DYEAR=1900
DGENRE=
TTITLE0=I Want To Breack Free
TTITLE1=Hotel California
TTITLE2=Rio Ancho
TTITLE3=My Baby Just Care For Me
TTITLE4=Honky Tonk Women
TTITLE5=Bulevals
TTITLE6=Moonlight Shadow
TTITLE7=Unchain My Heart
TTITLE8=O Pato
TTITLE9=Fever
TTITLE10=Billy Jean
TTITLE11=Tombola
EXTD=
EXTT0=
EXTT1=
EXTT2=
EXTT3=
EXTT4=
EXTT5=
EXTT6=
EXTT7=
EXTT8=
EXTT9=
EXTT10=
EXTT11=
PLAYORDER=
